<svg width="19" height="19" viewBox="0 0 19 19" fill="none" xmlns="http://www.w3.org/2000/svg">
<path d="M9.85156 0.394531C13.4466 0.394531 15.2443 0.394336 16.5391 1.25098C17.1172 1.63353 17.6126 2.12887 17.9951 2.70703C18.8518 4.00176 18.8516 5.79946 18.8516 9.39453C18.8516 12.9896 18.8518 14.7873 17.9951 16.082C17.6126 16.6602 17.1172 17.1555 16.5391 17.5381C15.2443 18.3947 13.4466 18.3945 9.85156 18.3945C6.25649 18.3945 4.45879 18.3947 3.16406 17.5381C2.5859 17.1555 2.09056 16.6602 1.70801 16.082C0.851367 14.7873 0.851562 12.9896 0.851562 9.39453C0.851562 5.79946 0.851367 4.00176 1.70801 2.70703C2.09056 2.12887 2.5859 1.63353 3.16406 1.25098C4.45879 0.394336 6.25649 0.394531 9.85156 0.394531ZM9.85059 4.73438C7.27745 4.7345 5.19153 6.82042 5.19141 9.39355C5.19141 11.9668 7.27737 14.0526 9.85059 14.0527C12.4239 14.0527 14.5098 11.9669 14.5098 9.39355C14.5096 6.82034 12.4238 4.73438 9.85059 4.73438ZM9.85059 6.31055C11.5532 6.31055 12.9335 7.69096 12.9336 9.39355C12.9336 11.0963 11.5533 12.4766 9.85059 12.4766C8.148 12.4764 6.76758 11.0962 6.76758 9.39355C6.7677 7.69104 8.14807 6.31067 9.85059 6.31055ZM14.6943 3.40625C14.0897 3.40625 13.5997 3.89637 13.5996 4.50098C13.5996 5.10563 14.0897 5.5957 14.6943 5.5957C15.2989 5.59564 15.7891 5.10559 15.7891 4.50098C15.789 3.8964 15.2989 3.40631 14.6943 3.40625Z" fill="white"/>
</svg>
