<svg width="159" height="46" viewBox="0 0 159 46" fill="none" xmlns="http://www.w3.org/2000/svg">
<path d="M0 34C0 28.4772 4.47715 24 10 24V36H0.952381C0.426395 36 0 35.5736 0 35.0476V34Z" fill="#A5EE7F"/>
<path d="M12 25C12 17.8203 17.8203 12 25 12V36H13.9048C12.8528 36 12 35.1472 12 34.0952V25Z" fill="#34A853"/>
<path d="M27 19C27 8.50659 35.5066 0 46 0V36H29.8571C28.2792 36 27 34.7208 27 33.1429V19Z" fill="#103C1F"/>
<path d="M54.38 36V11.52H64.274C64.512 11.52 64.8067 11.5313 65.158 11.554C65.5093 11.5653 65.8437 11.5993 66.161 11.656C67.521 11.8713 68.6543 12.336 69.561 13.05C70.479 13.764 71.1647 14.665 71.618 15.753C72.0713 16.841 72.298 18.0423 72.298 19.357C72.298 20.683 72.0713 21.89 71.618 22.978C71.1647 24.066 70.479 24.967 69.561 25.681C68.6543 26.395 67.521 26.8597 66.161 27.075C65.8437 27.1203 65.5037 27.1543 65.141 27.177C64.7897 27.1997 64.5007 27.211 64.274 27.211H57.933V36H54.38ZM57.933 23.845H64.138C64.3647 23.845 64.614 23.8337 64.886 23.811C65.1693 23.7883 65.4357 23.7487 65.685 23.692C66.4103 23.522 66.994 23.2103 67.436 22.757C67.878 22.2923 68.1953 21.7597 68.388 21.159C68.5807 20.5583 68.677 19.9577 68.677 19.357C68.677 18.7563 68.5807 18.1613 68.388 17.572C68.1953 16.9713 67.878 16.4443 67.436 15.991C66.994 15.5263 66.4103 15.209 65.685 15.039C65.4357 14.971 65.1693 14.9257 64.886 14.903C64.614 14.8803 64.3647 14.869 64.138 14.869H57.933V23.845ZM71.6964 36V17.64H74.8584V22.094L74.4164 21.516C74.6431 20.9267 74.9377 20.3883 75.3004 19.901C75.6631 19.4023 76.0824 18.9943 76.5584 18.677C77.0231 18.337 77.5387 18.0763 78.1054 17.895C78.6834 17.7023 79.2727 17.589 79.8734 17.555C80.4741 17.5097 81.0521 17.538 81.6074 17.64V20.972C81.0067 20.8133 80.3381 20.768 79.6014 20.836C78.8761 20.904 78.2074 21.1363 77.5954 21.533C77.0174 21.907 76.5584 22.3603 76.2184 22.893C75.8897 23.4257 75.6517 24.0207 75.5044 24.678C75.3571 25.324 75.2834 26.0097 75.2834 26.735V36H71.6964ZM88.4858 36.51C86.6498 36.51 85.0575 36.0963 83.7088 35.269C82.3601 34.4417 81.3175 33.3027 80.5808 31.852C79.8555 30.39 79.4928 28.707 79.4928 26.803C79.4928 24.8877 79.8668 23.2047 80.6148 21.754C81.3628 20.292 82.4111 19.1587 83.7598 18.354C85.1085 17.538 86.6838 17.13 88.4858 17.13C90.3218 17.13 91.9141 17.5437 93.2628 18.371C94.6115 19.1983 95.6541 20.3373 96.3908 21.788C97.1275 23.2387 97.4958 24.9103 97.4958 26.803C97.4958 28.7183 97.1218 30.407 96.3738 31.869C95.6371 33.3197 94.5945 34.4587 93.2458 35.286C91.8971 36.102 90.3105 36.51 88.4858 36.51ZM88.4858 33.161C90.2425 33.161 91.5515 32.5717 92.4128 31.393C93.2855 30.203 93.7218 28.673 93.7218 26.803C93.7218 24.8877 93.2798 23.3577 92.3958 22.213C91.5231 21.057 90.2198 20.479 88.4858 20.479C87.2958 20.479 86.3155 20.751 85.5448 21.295C84.7741 21.8277 84.2018 22.57 83.8278 23.522C83.4538 24.4627 83.2668 25.5563 83.2668 26.803C83.2668 28.7297 83.7088 30.271 84.5928 31.427C85.4768 32.583 86.7745 33.161 88.4858 33.161ZM104.797 44.67C103.811 44.67 102.853 44.517 101.924 44.211C101.006 43.905 100.167 43.4517 99.4076 42.851C98.6482 42.2617 98.0192 41.5307 97.5206 40.658L100.802 38.992C101.198 39.774 101.765 40.3463 102.502 40.709C103.238 41.0717 104.015 41.253 104.831 41.253C105.839 41.253 106.701 41.0717 107.415 40.709C108.129 40.3577 108.667 39.825 109.03 39.111C109.404 38.397 109.585 37.513 109.574 36.459V31.325H109.999V17.64H113.144V36.493C113.144 36.9803 113.127 37.445 113.093 37.887C113.059 38.329 112.996 38.771 112.906 39.213C112.645 40.4483 112.146 41.4683 111.41 42.273C110.684 43.0777 109.755 43.6783 108.622 44.075C107.5 44.4717 106.225 44.67 104.797 44.67ZM104.525 36.51C102.813 36.51 101.334 36.085 100.088 35.235C98.8522 34.385 97.8946 33.229 97.2146 31.767C96.5459 30.2937 96.2116 28.639 96.2116 26.803C96.2116 24.9557 96.5516 23.3067 97.2316 21.856C97.9116 20.394 98.8749 19.2437 100.122 18.405C101.38 17.555 102.87 17.13 104.593 17.13C106.327 17.13 107.783 17.555 108.962 18.405C110.152 19.2437 111.047 20.394 111.648 21.856C112.26 23.318 112.566 24.967 112.566 26.803C112.566 28.639 112.26 30.288 111.648 31.75C111.036 33.212 110.135 34.3737 108.945 35.235C107.755 36.085 106.281 36.51 104.525 36.51ZM105.018 33.297C106.185 33.297 107.137 33.0193 107.874 32.464C108.61 31.9087 109.149 31.1437 109.489 30.169C109.829 29.1943 109.999 28.0723 109.999 26.803C109.999 25.5337 109.823 24.4117 109.472 23.437C109.132 22.4623 108.599 21.703 107.874 21.159C107.16 20.615 106.247 20.343 105.137 20.343C103.958 20.343 102.989 20.632 102.23 21.21C101.47 21.788 100.904 22.5643 100.53 23.539C100.167 24.5137 99.9856 25.6017 99.9856 26.803C99.9856 28.0157 100.167 29.115 100.53 30.101C100.904 31.0757 101.459 31.852 102.196 32.43C102.944 33.008 103.884 33.297 105.018 33.297ZM113.917 36V17.64H117.079V22.094L116.637 21.516C116.864 20.9267 117.158 20.3883 117.521 19.901C117.884 19.4023 118.303 18.9943 118.779 18.677C119.244 18.337 119.759 18.0763 120.326 17.895C120.904 17.7023 121.493 17.589 122.094 17.555C122.695 17.5097 123.273 17.538 123.828 17.64V20.972C123.227 20.8133 122.559 20.768 121.822 20.836C121.097 20.904 120.428 21.1363 119.816 21.533C119.238 21.907 118.779 22.3603 118.439 22.893C118.11 23.4257 117.872 24.0207 117.725 24.678C117.578 25.324 117.504 26.0097 117.504 26.735V36H113.917ZM123.406 14.631V11.18H126.959V14.631H123.406ZM123.406 36V17.64H126.959V36H123.406ZM126.364 36V35.439L136.785 20.819H127.316V17.64H142.429V18.218L132.025 32.821H141.919V36H126.364ZM148.941 36.51C147.116 36.51 145.513 36.1133 144.13 35.32C142.759 34.5153 141.688 33.399 140.917 31.971C140.158 30.5317 139.778 28.8657 139.778 26.973C139.778 24.967 140.152 23.2273 140.9 21.754C141.659 20.2807 142.713 19.1417 144.062 18.337C145.411 17.5323 146.98 17.13 148.771 17.13C150.641 17.13 152.233 17.5663 153.548 18.439C154.863 19.3003 155.843 20.53 156.489 22.128C157.146 23.726 157.407 25.6243 157.271 27.823H153.718V26.531C153.695 24.4003 153.287 22.825 152.494 21.805C151.712 20.785 150.516 20.275 148.907 20.275C147.128 20.275 145.79 20.836 144.895 21.958C144 23.08 143.552 24.7007 143.552 26.82C143.552 28.8373 144 30.4013 144.895 31.512C145.79 32.6113 147.082 33.161 148.771 33.161C149.882 33.161 150.839 32.9117 151.644 32.413C152.46 31.903 153.095 31.1777 153.548 30.237L157.033 31.342C156.319 32.9853 155.237 34.2603 153.786 35.167C152.335 36.0623 150.72 36.51 148.941 36.51ZM142.396 27.823V25.052H155.503V27.823H142.396Z" fill="black"/>
</svg>
